inDegrees=no
num_controls=7
num_derivatives=13
num_iterations=89
num_multipliers=7
num_parameters=0
num_slacks=7
num_states=26
objective=0.425728
objective_accelerations=0.059825
objective_balance=0.001427
objective_effort=0.014736
objective_height=0.343869
objective_ligament=0.005870
solver_duration=1253.086956
status=Solve_Succeeded
success=true
DataType=double
version=3
OpenSimVersion=4.5
endheader
time	/jointset/ground_pelvis/pelvis_tilt/value	/jointset/ground_pelvis/pelvis_tx/value	/jointset/ground_pelvis/pelvis_ty/value	/jointset/hip_l/hip_flexion_l/value	/jointset/hip_l/hip_adduction_l/value	/jointset/hip_l/hip_rotation_l/value	/jointset/back/lumbar_extension/value	/jointset/patellofemoral_l/patellar_flexion_l/value	/jointset/knee_l/knee_flexion_l/value	/jointset/knee_l/knee_adduction_l/value	/jointset/knee_l/knee_rotation_l/value	/jointset/ankle_l/ankle_angle_l/value	/jointset/subtalar_l/subtalar_angle_l/value	/jointset/ground_pelvis/pelvis_tilt/speed	/jointset/ground_pelvis/pelvis_tx/speed	/jointset/ground_pelvis/pelvis_ty/speed	/jointset/hip_l/hip_flexion_l/speed	/jointset/hip_l/hip_adduction_l/speed	/jointset/hip_l/hip_rotation_l/speed	/jointset/back/lumbar_extension/speed	/jointset/patellofemoral_l/patellar_flexion_l/speed	/jointset/knee_l/knee_flexion_l/speed	/jointset/knee_l/knee_adduction_l/speed	/jointset/knee_l/knee_rotation_l/speed	/jointset/ankle_l/ankle_angle_l/speed	/jointset/subtalar_l/subtalar_angle_l/speed	/forceset/tau_hip_flexion_l	/forceset/tau_hip_adduction_l	/forceset/tau_hip_rotation_l	/forceset/tau_knee_flexion_l	/forceset/tau_ankle_angle_l	/forceset/tau_subtalar_angle_l	/forceset/tau_lumbar_extension	lambda_cid13_p0	lambda_cid13_p1	lambda_cid13_p2	lambda_cid13_p3	lambda_cid13_p4	lambda_cid13_p5	lambda_cid14_p0	/jointset/ground_pelvis/pelvis_tilt/accel	/jointset/ground_pelvis/pelvis_tx/accel	/jointset/ground_pelvis/pelvis_ty/accel	/jointset/hip_l/hip_flexion_l/accel	/jointset/hip_l/hip_adduction_l/accel	/jointset/hip_l/hip_rotation_l/accel	/jointset/back/lumbar_extension/accel	/jointset/patellofemoral_l/patellar_flexion_l/accel	/jointset/knee_l/knee_flexion_l/accel	/jointset/knee_l/knee_adduction_l/accel	/jointset/knee_l/knee_rotation_l/accel	/jointset/ankle_l/ankle_angle_l/accel	/jointset/subtalar_l/subtalar_angle_l/accel	gamma_cid13_p0	gamma_cid13_p1	gamma_cid13_p2	gamma_cid13_p3	gamma_cid13_p4	gamma_cid13_p5	gamma_cid14_p0
0.5	-0.2048082811338345	0.02530085742169858	0.7691654377731384	0.9962984516969069	-0.3604832452179318	-0.003019168923088116	-0.4014129760981757	0.9734302408379154	0.9734302408380769	-0.02379857779144427	-0.1745087780927163	0.31199682679622	0.1667836116546218	-0.7187923950947688	-0.172146107610377	-0.5395486199101206	2.399926193543369	0.04440797135858671	0.5261824585749142	-0.3048928592387041	2.043619649508139	2.043619649508186	0.3405666990569566	0.0004299039516108078	0.5321665406647356	0.2849769404203845	-0.0930813047207109	0.01022103005789597	-0.00217406759274011	-0.2203142477647297	0.02501863756530865	0.0266929918068433	0.1102471006255654	-15.1491120643807	-7.866019024686305	-0.2540007022750297	-6.247364415133196	-439.1227872357977	-80.10128287441505	-4.397664694408845	0.2477224591566284	0.5326451351788647	-0.489740111062911	-1.237283304455902	0.06669714338047092	-0.8290348391345652	1.450087212786994	-1.57961590737766	-1.579615907377644	-0.1776237535618843	-0.01027538859618936	-0.7486425751253919	0.1111329362335478	-5.083512479266604e-07	3.306386099528218e-07	7.401617751277757e-06	5.010378899316814e-07	-1.416578517379714e-06	-7.482799705483291e-07	-8.559368355022077e-07
0.51	-0.2119818270662722	0.02360623980785388	0.7637468280403314	1.020231032981938	-0.3600385645508865	0.00220829166029123	-0.4043904034108475	0.9937837853110479	0.9937837853113191	-0.02041259857998267	-0.1745044035884223	0.3172792830470954	0.1696342242373584	-0.7158171820466109	-0.1667641691214813	-0.544047097082184	2.386274467641299	0.04452918751792013	0.5192460157512221	-0.2905822189866016	2.026798996485413	2.026798996485505	0.3366429244583853	0.0004201114322735946	0.5242411255376587	0.2850994043773587	-0.09765951333106587	0.01093629415146913	-0.002562731732016826	-0.2228991590899533	0.02321250064076366	0.02725586733558038	0.1137517277348209	-15.87443066133386	-7.909220297113533	-0.3319352260049477	-5.981360907237542	-442.4945356881492	-80.4843835137749	-3.791973275612055	0.3373377980721397	0.5430591631596949	-0.4112448084744794	-1.476511142768594	-0.01617919410626978	-0.6363275494035159	1.42311007776681	-1.776657151811582	-1.776657151804728	-0.497563875783895	0.00136370445432776	-0.8270184412227695	-0.04508397724063149	-4.835201745414906e-07	6.665493729895127e-07	7.312934323128049e-06	5.374754087484752e-07	-1.345422531347418e-06	-3.468298486939114e-07	-8.271151803061237e-07
0.52	-0.2191226374541441	0.0219658597703811	0.7582869648781643	1.044017618226011	-0.3595928743315106	0.007364312106348372	-0.4072244127917292	1.013960449823532	1.013960449823919	-0.01706541902704728	-0.1745005880317078	0.3224799796547548	0.1724844840391308	-0.7122452861813773	-0.1612985923359939	-0.5477993057821227	2.370726985351788	0.04460988182461479	0.5118944311108479	-0.2762092728807016	2.008243657379028	2.008243657379166	0.3328067673486457	0.0003181144352091917	0.5158146120216228	0.284906384227532	-0.1022377219414121	0.01165155824502918	-0.002951395871140417	-0.2254840704151775	0.02140636371621203	0.02781874286429328	0.1172563548440868	-16.5930783221116	-7.96190929334594	-0.3988500209246977	-5.770460983059727	-445.7774551006974	-80.98816633549193	-3.237154269371645	0.367059022571842	0.5493727944971971	-0.340486416637946	-1.616434581944115	0.05859277285271057	-0.9120632024710404	1.462548383546471	-1.926553124109287	-1.926553124109277	-0.1601002557955694	-0.02871628414167986	-0.8488622529172124	0.04803611487334444	-4.498952143976412e-07	1.033865303094197e-06	7.102004732532292e-06	5.72258930492549e-07	-1.258150525756899e-06	7.598709504386856e-08	-7.794360735231706e-07
0.53	-0.226224739610696	0.02038049737010851	0.7527933017341517	1.067639552321725	-0.3591463593160703	0.01244634433772157	-0.4099142535178737	1.033943434363472	1.033943434363638	-0.01375702510912404	-0.1744973123504316	0.3275942006474697	0.1753315369562121	-0.7080612210702891	-0.1557654654442999	-0.5508063682330324	2.353344365286438	0.04467682357910627	0.5045728313834033	-0.2617500288832858	1.988096141460338	1.988096141460472	0.3287606015843868	0.0003518968872514976	0.5069593684466203	0.2844331752957777	-0.1070593053639127	0.01309692768224228	-0.003183008449798139	-0.227868418431957	0.01938524040707718	0.02762270056708434	0.1208969478186109	-17.46626152976488	-7.591447184627533	-0.6091837481746857	-5.36376311439377	-449.1776962464065	-80.6243544890403	-2.731938370951467	0.4611530891364927	0.5566640834391783	-0.2620154033588561	-1.846539917015116	-0.02284357763509603	-0.6337989899650904	1.438938927558998	-2.097266319482206	-2.097266319482635	-0.54340772018232	0.02303753606217153	-0.9143465537386691	-0.1066812512789852	-3.554978016186651e-07	4.976222156307071e-07	5.477629970828583e-06	3.995444287980648e-07	-9.895795363348854e-07	-4.394210283385254e-08	-6.31353131250368e-07
0.54	-0.2332815865493861	0.01885074252813958	0.7472733281168218	1.091078187377149	-0.3586998925739613	0.01745684244540296	-0.4124592365000999	1.053717260645476	1.053717260645424	-0.0104923994455289	-0.1744929764393922	0.3326177709756451	0.1781715214131601	-0.7031942426088301	-0.1501770806752601	-0.5530614004456125	2.334067177293705	0.04460022715830041	0.4975876063726011	-0.2472377240970746	1.966412005792316	1.966412005792447	0.3240531164824761	0.0005301603866937365	0.4976844791137408	0.283492692200856	-0.1118808887864	0.01454229711945223	-0.00341462102837811	-0.2302527664487354	0.01736411709793912	0.02742665826986813	0.1245375407931485	-18.3367696934011	-7.225294606033286	-0.8144394505681084	-5.000776206676709	-452.5098214224518	-80.36341032425332	-2.274893823388358	0.5036416926460705	0.5604243699663587	-0.1900803689720126	-1.995348167420692	0.02988513779323413	-0.8447882591425742	1.473160541305544	-2.23387707397552	-2.233877073975507	-0.2923641233259378	0.0001799253382707179	-0.9327914044926074	-0.04541871776015644	-1.938627816689095e-07	-1.038303189142264e-06	2.289443530452229e-06	-2.742354147592949e-09	-5.204224371418536e-07	-7.643563935627733e-07	-3.7218509439305e-07
